<svg width="50" height="50" viewBox="0 0 50 50" fill="none" xmlns="http://www.w3.org/2000/svg">
<path d="M25 46.875C37.0812 46.875 46.875 37.0812 46.875 25C46.875 12.9188 37.0812 3.125 25 3.125C12.9188 3.125 3.125 12.9188 3.125 25C3.125 37.0812 12.9188 46.875 25 46.875Z" fill="#F5A623"/>
<path d="M25 42.9688C34.9239 42.9688 42.9688 34.9239 42.9688 25C42.9688 15.0761 34.9239 7.03125 25 7.03125C15.0761 7.03125 7.03125 15.0761 7.03125 25C7.03125 34.9239 15.0761 42.9688 25 42.9688Z" fill="#F1F2F2"/>
<path d="M25 8.59375C24.5703 8.59375 24.2188 8.94531 24.2188 9.375V10.9375C24.2188 11.3672 24.5703 11.7188 25 11.7188C25.4297 11.7188 25.7812 11.3672 25.7812 10.9375V9.375C25.7812 8.94531 25.4297 8.59375 25 8.59375ZM25 38.2812C24.5703 38.2812 24.2188 38.6328 24.2188 39.0625V40.625C24.2188 41.0547 24.5703 41.4062 25 41.4062C25.4297 41.4062 25.7812 41.0547 25.7812 40.625V39.0625C25.7812 38.6328 25.4297 38.2812 25 38.2812ZM40.625 24.2188H39.0625C38.6328 24.2188 38.2812 24.5703 38.2812 25C38.2812 25.4297 38.6328 25.7812 39.0625 25.7812H40.625C41.0547 25.7812 41.4062 25.4297 41.4062 25C41.4062 24.5703 41.0547 24.2188 40.625 24.2188ZM10.9375 24.2188H9.375C8.94531 24.2188 8.59375 24.5703 8.59375 25C8.59375 25.4297 8.94531 25.7812 9.375 25.7812H10.9375C11.3672 25.7812 11.7188 25.4297 11.7188 25C11.7188 24.5703 11.3672 24.2188 10.9375 24.2188ZM35.5 13.3984L34.3906 14.5C34.0859 14.8047 34.0859 15.2969 34.3906 15.6016C34.5469 15.7578 34.7422 15.8281 34.9453 15.8281C35.1484 15.8281 35.3437 15.75 35.5 15.6016L36.6094 14.5C36.9141 14.1953 36.9141 13.7031 36.6094 13.3984C36.3047 13.0937 35.8125 13.0937 35.5078 13.3984H35.5ZM14.5 34.3906L13.3984 35.5C13.0937 35.8047 13.0937 36.2969 13.3984 36.6016C13.5547 36.7578 13.75 36.8281 13.9531 36.8281C14.1563 36.8281 14.3516 36.75 14.5078 36.6016L15.6094 35.4922C15.9141 35.1875 15.9141 34.6953 15.6094 34.3906C15.3047 34.0859 14.8125 34.0859 14.5078 34.3906H14.5ZM35.4922 34.3906C35.1875 34.0859 34.6953 34.0859 34.3906 34.3906C34.0859 34.6953 34.0859 35.1875 34.3906 35.4922L35.5 36.6016C35.6562 36.7578 35.8516 36.8281 36.0547 36.8281C36.2578 36.8281 36.4531 36.75 36.6094 36.6016C36.9141 36.2969 36.9141 35.8047 36.6094 35.5L35.5 34.3906H35.4922ZM14.5 15.6094C14.6562 15.7656 14.8516 15.8359 15.0547 15.8359C15.2578 15.8359 15.4531 15.7578 15.6094 15.6094C15.9141 15.3047 15.9141 14.8125 15.6094 14.5078L14.5078 13.4062C14.2031 13.1016 13.7109 13.1016 13.4062 13.4062C13.1016 13.7109 13.1016 14.2031 13.4062 14.5078L14.5078 15.6094H14.5Z" fill="#4990E2"/>
<path d="M26.5625 14.8438C26.5625 13.9844 25.8594 13.2812 25 13.2812C24.1406 13.2812 23.4375 13.9844 23.4375 14.8438V23.2578H26.5625V14.8438ZM32.3516 30.1484L27.3359 25.1328L25.1328 27.3359L30.1484 32.3516C30.4531 32.6562 30.8516 32.8125 31.25 32.8125C31.6484 32.8125 32.0469 32.6562 32.3516 32.3516C32.9687 31.7422 32.9687 30.7578 32.3516 30.1484Z" fill="#D0011B"/>
<path d="M25 27.3438C26.2944 27.3438 27.3438 26.2944 27.3438 25C27.3438 23.7056 26.2944 22.6562 25 22.6562C23.7056 22.6562 22.6562 23.7056 22.6562 25C22.6562 26.2944 23.7056 27.3438 25 27.3438Z" fill="#F5A623"/>
</svg>
