<svg width="50" height="50" viewBox="0 0 50 50" fill="none" xmlns="http://www.w3.org/2000/svg">
<path d="M25 47.4512C37.3994 47.4512 47.4512 37.3994 47.4512 25C47.4512 12.6006 37.3994 2.54883 25 2.54883C12.6006 2.54883 2.54883 12.6006 2.54883 25C2.54883 37.3994 12.6006 47.4512 25 47.4512Z" fill="#EC2027"/>
<path d="M25 39.873C33.2142 39.873 39.873 33.2142 39.873 25C39.873 16.7858 33.2142 10.127 25 10.127C16.7858 10.127 10.127 16.7858 10.127 25C10.127 33.2142 16.7858 39.873 25 39.873Z" fill="#F2F2F3"/>
<path d="M25 31.8652C28.7916 31.8652 31.8652 28.7916 31.8652 25C31.8652 21.2084 28.7916 18.1348 25 18.1348C21.2084 18.1348 18.1348 21.2084 18.1348 25C18.1348 28.7916 21.2084 31.8652 25 31.8652Z" fill="#EC2027"/>
<path d="M40.5562 10.7026L24.5991 26.6597C24.2964 26.9624 23.8081 26.9624 23.5054 26.6597C23.2026 26.3569 23.2026 25.8687 23.5054 25.5659L39.4624 9.60889C39.7651 9.30615 40.2534 9.30615 40.5562 9.60889C40.8589 9.91162 40.8589 10.3999 40.5562 10.7026Z" fill="#191919"/>
<path d="M45.283 10.615L41.1423 14.7556C40.9666 14.9314 40.7224 15.0193 40.4783 15.0095L36.2107 14.7751C35.7712 14.7458 35.4099 14.3943 35.3904 13.9548L35.156 9.68725C35.1462 9.44311 35.2341 9.19897 35.4099 9.02319L39.5505 4.88256C40.0779 4.35522 40.9959 4.69701 41.0349 5.44897L41.2302 8.93529L44.7166 9.13061C45.4685 9.16967 45.8201 10.0779 45.283 10.615Z" fill="#FBB03A"/>
</svg>
