<svg width="197" height="32" viewBox="0 0 197 32" fill="none" xmlns="http://www.w3.org/2000/svg">
<path d="M10.56 31.64C9.04 31.64 7.74667 31.4267 6.68 31C5.64 30.5467 4.70667 29.84 3.88 28.88L3.44 31.2H0V21.52H3.64C3.8 24.1867 4.45333 26.08 5.6 27.2C6.74667 28.2933 8.26667 28.84 10.16 28.84C11.68 28.84 12.8933 28.52 13.8 27.88C14.7067 27.24 15.16 26.2533 15.16 24.92C15.16 23.8267 14.8533 22.9333 14.24 22.24C13.6533 21.52 12.8133 20.8933 11.72 20.36C10.6533 19.8 9.4 19.2267 7.96 18.64C6.30667 17.9467 4.89333 17.24 3.72 16.52C2.54667 15.8 1.65333 14.9333 1.04 13.92C0.426667 12.9067 0.12 11.6267 0.12 10.08C0.12 7.49334 0.906667 5.49333 2.48 4.08C4.08 2.66667 6.21333 1.96 8.88 1.96C11.52 1.96 13.6667 2.70667 15.32 4.2L15.64 2.4H19.08V12.08H15.6C15.6 9.57333 15.1333 7.72 14.2 6.52C13.2667 5.32 11.8267 4.72 9.88 4.72C6.86667 4.72 5.36 6.14667 5.36 9C5.36 9.93333 5.54667 10.68 5.92 11.24C6.29333 11.8 6.90667 12.32 7.76 12.8C8.64 13.28 9.82667 13.8533 11.32 14.52C13.56 15.5333 15.3467 16.48 16.68 17.36C18.0133 18.24 18.96 19.1733 19.52 20.16C20.1067 21.12 20.4 22.2533 20.4 23.56C20.4 25.3467 19.96 26.84 19.08 28.04C18.2 29.24 17.0133 30.1467 15.52 30.76C14.0533 31.3467 12.4 31.64 10.56 31.64Z" fill="white"/>
<path d="M23.4112 26.48C23.4112 24.2667 24.4246 22.56 26.4513 21.36C28.4779 20.1333 31.6646 19.1867 36.0112 18.52C35.9046 17.1867 35.7579 16.16 35.5713 15.44C35.3846 14.72 35.1446 14.1067 34.8512 13.6C34.5046 12.9867 34.0779 12.4933 33.5713 12.12C33.0646 11.7467 32.4246 11.56 31.6513 11.56C31.0913 11.56 30.5712 11.6667 30.0912 11.88C29.6379 12.0933 29.3312 12.3867 29.1712 12.76C29.5446 12.9467 29.7979 13.24 29.9312 13.64C30.0912 14.04 30.1713 14.3867 30.1713 14.68C30.1713 15.3467 29.8779 15.9467 29.2913 16.48C28.7046 16.9867 27.9979 17.24 27.1712 17.24C26.3446 17.24 25.6913 16.9733 25.2113 16.44C24.7313 15.88 24.4913 15.1867 24.4913 14.36C24.4913 13.2667 24.8779 12.3333 25.6513 11.56C26.4246 10.7867 27.4112 10.2 28.6112 9.8C29.8112 9.4 31.0246 9.2 32.2513 9.2C33.5046 9.2 34.6246 9.38667 35.6113 9.76C36.6246 10.1067 37.4379 10.5467 38.0513 11.08C40.1579 12.9467 41.2113 15.9067 41.2113 19.96V25.16C41.2113 26.4667 41.2913 27.3733 41.4513 27.88C41.6379 28.3867 42.0246 28.64 42.6113 28.64H44.4113V30.44C41.9579 31.2133 40.1046 31.6 38.8512 31.6C37.9712 31.6 37.3846 31.3067 37.0913 30.72C36.7979 30.1333 36.6513 28.9733 36.6513 27.24H36.4912C35.6646 28.6 34.5713 29.6667 33.2113 30.44C31.8513 31.2133 30.3846 31.6 28.8113 31.6C27.1313 31.6 25.8112 31.1467 24.8512 30.24C23.8912 29.3333 23.4112 28.08 23.4112 26.48ZM31.2513 28.68C31.8113 28.68 32.4246 28.4933 33.0913 28.12C33.7846 27.7467 34.3846 27.2267 34.8913 26.56C35.1846 26.1867 35.4646 25.6533 35.7313 24.96C35.9979 24.2667 36.1313 23.44 36.1313 22.48C36.1313 22.16 36.1179 21.8 36.0913 21.4C36.0646 21 36.0246 20.6267 35.9712 20.28C34.1312 20.68 32.6779 21.1067 31.6112 21.56C30.5712 22.0133 29.8246 22.56 29.3713 23.2C28.9446 23.8133 28.7313 24.5733 28.7313 25.48C28.7313 26.6267 28.9979 27.4533 29.5312 27.96C30.0646 28.44 30.6379 28.68 31.2513 28.68Z" fill="white"/>
<path d="M48.1244 28.16V3.04L45.0444 2.28V0H53.2044V28.16L56.2844 28.92V31.2H45.0444V28.92L48.1244 28.16Z" fill="white"/>
<path d="M61.5312 28.2V12.6L58.4512 11.84V9.6H65.4112L66.2913 13.6H66.4512C67.2246 12.2667 68.2512 11.2 69.5312 10.4C70.8379 9.6 72.2246 9.2 73.6913 9.2C74.7846 9.2 75.7579 9.41333 76.6113 9.84C77.4646 10.24 78.0912 10.7467 78.4912 11.36C78.9179 12.0267 79.2646 12.9067 79.5312 14C80.3846 12.5067 81.4912 11.3333 82.8512 10.48C84.2112 9.62667 85.6646 9.2 87.2113 9.2C88.2779 9.2 89.2379 9.41333 90.0912 9.84C90.9446 10.24 91.5979 10.8 92.0513 11.52C92.3713 12.0267 92.6246 12.68 92.8112 13.48C92.9979 14.28 93.1312 15.32 93.2113 16.6C93.2913 17.8533 93.3313 19.4533 93.3313 21.4V28.2L96.4112 28.96V31.2H85.5713V28.96L88.2513 28.2V20.48C88.2513 18.7467 88.1979 17.4667 88.0912 16.64C87.9846 15.7867 87.8246 15.1067 87.6113 14.6C87.3446 13.96 86.9846 13.52 86.5312 13.28C86.1046 13.0133 85.6512 12.88 85.1712 12.88C84.5046 12.88 83.8913 12.9733 83.3313 13.16C82.7979 13.3467 82.2779 13.6667 81.7712 14.12C81.1846 14.6533 80.7446 15.28 80.4512 16C80.1846 16.72 80.0246 17.6267 79.9713 18.72V28.2L82.6513 28.96V31.2H72.2113V28.96L74.8913 28.2V20.48C74.8913 18.7467 74.8379 17.4667 74.7313 16.64C74.6246 15.7867 74.4646 15.1067 74.2513 14.6C73.9846 13.96 73.6246 13.52 73.1712 13.28C72.7446 13.0133 72.2912 12.88 71.8112 12.88C71.1446 12.88 70.5313 12.9733 69.9713 13.16C69.4379 13.3467 68.9179 13.6667 68.4112 14.12C67.8246 14.6533 67.3846 15.28 67.0912 16C66.8246 16.72 66.6646 17.6267 66.6113 18.72V28.2L69.2913 28.96V31.2H58.4512V28.96L61.5312 28.2Z" fill="white"/>
<path d="M119.296 20.4C119.296 22.1067 119.043 23.72 118.536 25.24C118.056 26.7333 117.349 27.9867 116.416 29C115.536 29.9333 114.469 30.6 113.216 31C111.989 31.4 110.549 31.6 108.896 31.6C107.243 31.6 105.789 31.4 104.536 31C103.309 30.6 102.256 29.9333 101.376 29C100.443 27.9867 99.7226 26.7333 99.2159 25.24C98.7359 23.72 98.4959 22.1067 98.4959 20.4C98.4959 18.6933 98.7359 17.08 99.2159 15.56C99.7226 14.04 100.443 12.7867 101.376 11.8C102.256 10.8667 103.309 10.2 104.536 9.8C105.789 9.4 107.243 9.2 108.896 9.2C110.549 9.2 111.989 9.4 113.216 9.8C114.469 10.2 115.536 10.8667 116.416 11.8C117.349 12.7867 118.056 14.04 118.536 15.56C119.043 17.08 119.296 18.6933 119.296 20.4ZM105.256 27.32C105.629 27.8533 106.109 28.2533 106.696 28.52C107.309 28.7867 108.043 28.92 108.896 28.92C109.749 28.92 110.483 28.7867 111.096 28.52C111.709 28.2533 112.189 27.8533 112.536 27.32C113.389 26.0133 113.816 23.7067 113.816 20.4C113.816 18.72 113.709 17.3067 113.496 16.16C113.283 15.0133 112.963 14.12 112.536 13.48C112.189 12.9467 111.709 12.5467 111.096 12.28C110.483 12.0133 109.749 11.88 108.896 11.88C108.043 11.88 107.309 12.0133 106.696 12.28C106.109 12.5467 105.629 12.9467 105.256 13.48C104.403 14.7867 103.976 17.0933 103.976 20.4C103.976 23.7067 104.403 26.0133 105.256 27.32Z" fill="white"/>
<path d="M133.966 12.52C133.673 12.52 133.339 12.7067 132.966 13.08C132.593 13.4267 132.246 13.84 131.926 14.32C131.633 14.8 131.419 15.2267 131.286 15.6C130.966 16.5067 130.686 17.44 130.446 18.4C130.206 19.36 130.086 20.5333 130.086 21.92V28.2L134.406 28.96V31.2H121.926V28.96L125.006 28.2V12L121.926 11.24V9.6H128.886L129.766 14.88H129.926C130.539 13.0667 131.366 11.6667 132.406 10.68C133.446 9.69333 134.593 9.2 135.846 9.2C136.886 9.2 137.753 9.53333 138.446 10.2C139.139 10.84 139.486 11.7067 139.486 12.8C139.486 13.6 139.246 14.3333 138.766 15C138.286 15.64 137.606 15.96 136.726 15.96C135.659 15.96 134.899 15.72 134.446 15.24C133.993 14.7333 133.766 14.1867 133.766 13.6C133.766 13.4133 133.766 13.28 133.766 13.2C133.793 13.0933 133.859 12.8667 133.966 12.52Z" fill="white"/>
<path d="M144.031 12.6L140.951 11.84V9.6H149.111V28.2L152.191 28.96V31.2H140.951V28.96L144.031 28.2V12.6ZM143.591 3.52C143.591 2.66667 143.845 1.97333 144.351 1.44C144.885 0.906666 145.618 0.639999 146.551 0.639999C147.485 0.639999 148.218 0.906666 148.751 1.44C149.285 1.97333 149.551 2.66667 149.551 3.52C149.551 4.34667 149.285 5.02667 148.751 5.56C148.245 6.09333 147.511 6.36 146.551 6.36C145.591 6.36 144.858 6.10667 144.351 5.6C143.845 5.06667 143.591 4.37333 143.591 3.52Z" fill="white"/>
<path d="M169.153 28.36L169.953 22.92H173.433V31.2H154.513V28.36L167.033 12.44H159.473L158.513 17.68H155.033V9.6H173.273V12.44L160.793 28.36H169.153Z" fill="white"/>
<path d="M195.978 20.96H182.018C182.018 22.7733 182.285 24.28 182.818 25.48C183.245 26.3867 183.818 27.0933 184.538 27.6C185.258 28.08 186.151 28.32 187.218 28.32C188.391 28.32 189.551 28.0533 190.698 27.52C191.871 26.9867 192.871 26.1867 193.698 25.12L195.858 26.8C194.925 28.1333 193.658 29.2667 192.058 30.2C190.485 31.1333 188.538 31.6 186.218 31.6C184.271 31.6 182.591 31.2133 181.178 30.44C179.765 29.64 178.685 28.48 177.938 26.96C177.538 26.1333 177.245 25.2133 177.058 24.2C176.871 23.1867 176.778 22.0933 176.778 20.92C176.778 17.1867 177.631 14.3067 179.338 12.28C181.071 10.2267 183.511 9.2 186.658 9.2C189.565 9.2 191.858 10.0533 193.538 11.76C195.245 13.44 196.098 15.7733 196.098 18.76C196.098 19.0533 196.085 19.3467 196.058 19.64C196.058 19.9067 196.031 20.3467 195.978 20.96ZM186.578 11.96C183.831 11.96 182.325 14.1067 182.058 18.4H190.858V17.36C190.858 15.6267 190.471 14.2933 189.698 13.36C188.951 12.4267 187.911 11.96 186.578 11.96Z" fill="white"/>
</svg>
