<svg width="50" height="50" viewBox="0 0 50 50" fill="none" xmlns="http://www.w3.org/2000/svg">
<g clip-path="url(#clip0_4566_4102)">
<path d="M10.0186 48.251L13.3779 31.2588L0.584961 19.5791L17.7822 17.5283L24.9307 1.74707L32.1963 17.4697L49.4131 19.3936L36.708 31.1709L40.1943 48.1338L25.0771 39.6865L10.0186 48.251Z" fill="#FFD759"/>
<path d="M24.999 25L0.584961 19.5801L13.3779 31.2598L24.999 25Z" fill="#FABD3B"/>
<path d="M25 25L10.0195 48.252L25.0781 39.6875L40.1953 48.1348L25 25Z" fill="#FABD3B"/>
<path d="M25 24.999L49.4141 19.3936L36.709 31.1709L25 24.999Z" fill="#FABD3B"/>
<path d="M24.9316 1.74707L25 24.999L32.1973 17.4697L24.9316 1.74707Z" fill="#FABD3B"/>
</g>
<defs>
<clipPath id="clip0_4566_4102">
<rect width="50" height="50" fill="white"/>
</clipPath>
</defs>
</svg>
